<!--?xml version="1.0" encoding="utf-8"?-->
<!-- Generator: Adobe Illustrator 18.1.1, SVG Export Plug-In . SVG Version: 6.00 Build 0)  -->

<svg version="1.1" id="_x31_0" xmlns="http://www.w3.org/2000/svg" xmlns:xlink="http://www.w3.org/1999/xlink" x="0px" y="0px" viewBox="0 0 512 512" style="width: 256px; height: 256px; opacity: 1;" xml:space="preserve">
<style type="text/css">
	.st0{fill:#374149;}
</style>
<g>
	<path class="st0" d="M443.999,78.242h-36.746l-73.331-0.32l0,0C333.921,34.961,298.96,0,256,0c-42.957,0-77.84,34.961-77.84,77.922
		v0.32H68.084c-14.641,0-26.562,11.84-26.562,26.48c0,14.641,11.922,26.481,26.562,26.481h375.915c14.64,0,26.48-11.84,26.48-26.481
		C470.479,90.082,458.639,78.242,443.999,78.242z M264.242,78.242l-33.121-0.32l0,0c0-13.758,11.199-24.879,24.879-24.879
		c10.094,0,18.718,6.008,22.625,14.625c0.094,0.207,0.23,0.391,0.316,0.602c0.246,0.59,0.367,1.238,0.57,1.848
		c0.324,0.984,0.683,1.953,0.886,2.992c0.094,0.488,0.082,1.008,0.153,1.508c0.156,1.191,0.32,2.382,0.316,3.625H264.242z" style="fill: rgb(223, 86, 86);"></path>
	<path class="st0" d="M379.44,160.163H132.564c-13.043,0-25.602,5.359-34.48,14.718c-8.801,9.359-13.442,22.16-12.641,35.117
		L100.802,470c1.442,23.52,21.922,42,46.801,42H364.48c24.801,0,45.359-18.48,46.718-42l15.363-260.002
		c0.801-12.957-3.84-25.758-12.641-35.038C405.042,165.522,392.48,160.163,379.44,160.163z M360.577,213.202l12.703,0.008
		l-14.558,245.748h-205.44l-14.558-245.756H360.577z" style="fill: rgb(223, 86, 86);"></path>
	<path class="st0" d="M212.641,434.879c9.316,0,16.87-7.55,16.87-16.87V254.134c0-9.316-7.554-16.87-16.87-16.87
		c-9.317,0-16.871,7.554-16.871,16.87v163.874C195.77,427.329,203.324,434.879,212.641,434.879z" style="fill: rgb(223, 86, 86);"></path>
	<path class="st0" d="M299.394,434.879c9.317,0,16.871-7.55,16.871-16.87V254.134c0-9.316-7.554-16.87-16.871-16.87
		c-9.312,0-16.867,7.554-16.867,16.87v163.874C282.527,427.329,290.082,434.879,299.394,434.879z" style="fill: rgb(223, 86, 86);"></path>
</g>
</svg>
